<svg width="420" height="104" viewBox="0 0 420 104" xmlns="http://www.w3.org/2000/svg">
  <defs>
    <linearGradient id="textGrad" x1="0%" y1="0%" x2="100%" y2="0%">
      <stop offset="0%" stop-color="#6ee7b7"/>
      <stop offset="45%" stop-color="#22d3ee"/>
      <stop offset="100%" stop-color="#6ee7b7"/>
      <animateTransform attributeName="gradientTransform" type="translate"
        values="-420 0; 420 0; -420 0" dur="4s" repeatCount="indefinite"/>
    </linearGradient>

    <filter id="glow" x="-50%" y="-50%" width="200%" height="200%">
      <feGaussianBlur stdDeviation="1.4" result="blur"/>
      <feMerge>
        <feMergeNode in="blur"/>
        <feMergeNode in="blur"/>
        <feMergeNode in="SourceGraphic"/>
      </feMerge>
    </filter>

    <clipPath id="typeClip">
      <rect x="-2" y="-2" width="0" height="18">
        <animate attributeName="width"
          values="0;374;374;0;0"
          keyTimes="0;0.35;0.75;0.85;1"
          dur="4.5s" repeatCount="indefinite"/>
      </rect>
    </clipPath>
  </defs>

  <!-- khung cua so terminal, khong vien do -->
  <rect x="1" y="1" width="418" height="102" rx="10" fill="#0b0d14"/>

  <!-- thanh tieu de -->
  <rect x="1" y="1" width="418" height="26" rx="10" fill="#12141f"/>
  <rect x="1" y="17" width="418" height="10" fill="#12141f"/>
  <line x1="1" y1="27" x2="419" y2="27" stroke="#22242f" stroke-width="1"/>

  <circle cx="18" cy="14" r="4.2" fill="#ff5f56"/>
  <circle cx="33" cy="14" r="4.2" fill="#ffbd2e"/>
  <circle cx="48" cy="14" r="4.2" fill="#27c93f"/>

  <text x="210" y="17.5" text-anchor="middle" font-family="Consolas, 'Courier New', monospace"
        font-size="8.5" fill="#6b6f80">README.md</text>

  <!-- chu pixel-art thu cong (5x7 bitmap), gradient xanh neon, go roi xoa lien tuc -->
  <g transform="translate(18,54)" fill="url(#textGrad)" filter="url(#glow)" clip-path="url(#typeClip)">
    <rect x="0" y="0" width="2" height="2"/>
    <rect x="2" y="2" width="2" height="2"/>
    <rect x="4" y="4" width="2" height="2"/>
    <rect x="6" y="6" width="2" height="2"/>
    <rect x="4" y="8" width="2" height="2"/>
    <rect x="2" y="10" width="2" height="2"/>
    <rect x="0" y="12" width="2" height="2"/>
    <rect x="12" y="12" width="2" height="2"/>
    <rect x="14" y="12" width="2" height="2"/>
    <rect x="16" y="12" width="2" height="2"/>
    <rect x="18" y="12" width="2" height="2"/>
    <rect x="20" y="12" width="2" height="2"/>
    <rect x="34" y="0" width="2" height="2"/>
    <rect x="36" y="0" width="2" height="2"/>
    <rect x="38" y="0" width="2" height="2"/>
    <rect x="40" y="0" width="2" height="2"/>
    <rect x="32" y="2" width="2" height="2"/>
    <rect x="32" y="4" width="2" height="2"/>
    <rect x="34" y="6" width="2" height="2"/>
    <rect x="36" y="6" width="2" height="2"/>
    <rect x="38" y="6" width="2" height="2"/>
    <rect x="40" y="8" width="2" height="2"/>
    <rect x="40" y="10" width="2" height="2"/>
    <rect x="32" y="12" width="2" height="2"/>
    <rect x="34" y="12" width="2" height="2"/>
    <rect x="36" y="12" width="2" height="2"/>
    <rect x="38" y="12" width="2" height="2"/>
    <rect x="46" y="0" width="2" height="2"/>
    <rect x="48" y="0" width="2" height="2"/>
    <rect x="50" y="0" width="2" height="2"/>
    <rect x="44" y="2" width="2" height="2"/>
    <rect x="52" y="2" width="2" height="2"/>
    <rect x="44" y="4" width="2" height="2"/>
    <rect x="52" y="4" width="2" height="2"/>
    <rect x="44" y="6" width="2" height="2"/>
    <rect x="52" y="6" width="2" height="2"/>
    <rect x="44" y="8" width="2" height="2"/>
    <rect x="52" y="8" width="2" height="2"/>
    <rect x="44" y="10" width="2" height="2"/>
    <rect x="52" y="10" width="2" height="2"/>
    <rect x="46" y="12" width="2" height="2"/>
    <rect x="48" y="12" width="2" height="2"/>
    <rect x="50" y="12" width="2" height="2"/>
    <rect x="56" y="0" width="2" height="2"/>
    <rect x="58" y="0" width="2" height="2"/>
    <rect x="60" y="0" width="2" height="2"/>
    <rect x="62" y="0" width="2" height="2"/>
    <rect x="64" y="0" width="2" height="2"/>
    <rect x="56" y="2" width="2" height="2"/>
    <rect x="56" y="4" width="2" height="2"/>
    <rect x="56" y="6" width="2" height="2"/>
    <rect x="58" y="6" width="2" height="2"/>
    <rect x="60" y="6" width="2" height="2"/>
    <rect x="62" y="6" width="2" height="2"/>
    <rect x="56" y="8" width="2" height="2"/>
    <rect x="56" y="10" width="2" height="2"/>
    <rect x="56" y="12" width="2" height="2"/>
    <rect x="68" y="0" width="2" height="2"/>
    <rect x="70" y="0" width="2" height="2"/>
    <rect x="72" y="0" width="2" height="2"/>
    <rect x="74" y="0" width="2" height="2"/>
    <rect x="76" y="0" width="2" height="2"/>
    <rect x="72" y="2" width="2" height="2"/>
    <rect x="72" y="4" width="2" height="2"/>
    <rect x="72" y="6" width="2" height="2"/>
    <rect x="72" y="8" width="2" height="2"/>
    <rect x="72" y="10" width="2" height="2"/>
    <rect x="72" y="12" width="2" height="2"/>
    <rect x="80" y="0" width="2" height="2"/>
    <rect x="88" y="0" width="2" height="2"/>
    <rect x="80" y="2" width="2" height="2"/>
    <rect x="88" y="2" width="2" height="2"/>
    <rect x="80" y="4" width="2" height="2"/>
    <rect x="88" y="4" width="2" height="2"/>
    <rect x="80" y="6" width="2" height="2"/>
    <rect x="84" y="6" width="2" height="2"/>
    <rect x="88" y="6" width="2" height="2"/>
    <rect x="80" y="8" width="2" height="2"/>
    <rect x="84" y="8" width="2" height="2"/>
    <rect x="88" y="8" width="2" height="2"/>
    <rect x="80" y="10" width="2" height="2"/>
    <rect x="82" y="10" width="2" height="2"/>
    <rect x="86" y="10" width="2" height="2"/>
    <rect x="88" y="10" width="2" height="2"/>
    <rect x="80" y="12" width="2" height="2"/>
    <rect x="88" y="12" width="2" height="2"/>
    <rect x="94" y="0" width="2" height="2"/>
    <rect x="96" y="0" width="2" height="2"/>
    <rect x="98" y="0" width="2" height="2"/>
    <rect x="92" y="2" width="2" height="2"/>
    <rect x="100" y="2" width="2" height="2"/>
    <rect x="92" y="4" width="2" height="2"/>
    <rect x="100" y="4" width="2" height="2"/>
    <rect x="92" y="6" width="2" height="2"/>
    <rect x="94" y="6" width="2" height="2"/>
    <rect x="96" y="6" width="2" height="2"/>
    <rect x="98" y="6" width="2" height="2"/>
    <rect x="100" y="6" width="2" height="2"/>
    <rect x="92" y="8" width="2" height="2"/>
    <rect x="100" y="8" width="2" height="2"/>
    <rect x="92" y="10" width="2" height="2"/>
    <rect x="100" y="10" width="2" height="2"/>
    <rect x="92" y="12" width="2" height="2"/>
    <rect x="100" y="12" width="2" height="2"/>
    <rect x="104" y="0" width="2" height="2"/>
    <rect x="106" y="0" width="2" height="2"/>
    <rect x="108" y="0" width="2" height="2"/>
    <rect x="110" y="0" width="2" height="2"/>
    <rect x="104" y="2" width="2" height="2"/>
    <rect x="112" y="2" width="2" height="2"/>
    <rect x="104" y="4" width="2" height="2"/>
    <rect x="112" y="4" width="2" height="2"/>
    <rect x="104" y="6" width="2" height="2"/>
    <rect x="106" y="6" width="2" height="2"/>
    <rect x="108" y="6" width="2" height="2"/>
    <rect x="110" y="6" width="2" height="2"/>
    <rect x="104" y="8" width="2" height="2"/>
    <rect x="108" y="8" width="2" height="2"/>
    <rect x="104" y="10" width="2" height="2"/>
    <rect x="110" y="10" width="2" height="2"/>
    <rect x="104" y="12" width="2" height="2"/>
    <rect x="112" y="12" width="2" height="2"/>
    <rect x="116" y="0" width="2" height="2"/>
    <rect x="118" y="0" width="2" height="2"/>
    <rect x="120" y="0" width="2" height="2"/>
    <rect x="122" y="0" width="2" height="2"/>
    <rect x="124" y="0" width="2" height="2"/>
    <rect x="116" y="2" width="2" height="2"/>
    <rect x="116" y="4" width="2" height="2"/>
    <rect x="116" y="6" width="2" height="2"/>
    <rect x="118" y="6" width="2" height="2"/>
    <rect x="120" y="6" width="2" height="2"/>
    <rect x="122" y="6" width="2" height="2"/>
    <rect x="116" y="8" width="2" height="2"/>
    <rect x="116" y="10" width="2" height="2"/>
    <rect x="116" y="12" width="2" height="2"/>
    <rect x="118" y="12" width="2" height="2"/>
    <rect x="120" y="12" width="2" height="2"/>
    <rect x="122" y="12" width="2" height="2"/>
    <rect x="124" y="12" width="2" height="2"/>
    <rect x="136" y="0" width="2" height="2"/>
    <rect x="138" y="0" width="2" height="2"/>
    <rect x="140" y="0" width="2" height="2"/>
    <rect x="142" y="0" width="2" height="2"/>
    <rect x="144" y="0" width="2" height="2"/>
    <rect x="136" y="2" width="2" height="2"/>
    <rect x="136" y="4" width="2" height="2"/>
    <rect x="136" y="6" width="2" height="2"/>
    <rect x="138" y="6" width="2" height="2"/>
    <rect x="140" y="6" width="2" height="2"/>
    <rect x="142" y="6" width="2" height="2"/>
    <rect x="136" y="8" width="2" height="2"/>
    <rect x="136" y="10" width="2" height="2"/>
    <rect x="136" y="12" width="2" height="2"/>
    <rect x="138" y="12" width="2" height="2"/>
    <rect x="140" y="12" width="2" height="2"/>
    <rect x="142" y="12" width="2" height="2"/>
    <rect x="144" y="12" width="2" height="2"/>
    <rect x="148" y="0" width="2" height="2"/>
    <rect x="156" y="0" width="2" height="2"/>
    <rect x="148" y="2" width="2" height="2"/>
    <rect x="150" y="2" width="2" height="2"/>
    <rect x="156" y="2" width="2" height="2"/>
    <rect x="148" y="4" width="2" height="2"/>
    <rect x="152" y="4" width="2" height="2"/>
    <rect x="156" y="4" width="2" height="2"/>
    <rect x="148" y="6" width="2" height="2"/>
    <rect x="152" y="6" width="2" height="2"/>
    <rect x="156" y="6" width="2" height="2"/>
    <rect x="148" y="8" width="2" height="2"/>
    <rect x="154" y="8" width="2" height="2"/>
    <rect x="156" y="8" width="2" height="2"/>
    <rect x="148" y="10" width="2" height="2"/>
    <rect x="156" y="10" width="2" height="2"/>
    <rect x="148" y="12" width="2" height="2"/>
    <rect x="156" y="12" width="2" height="2"/>
    <rect x="162" y="0" width="2" height="2"/>
    <rect x="164" y="0" width="2" height="2"/>
    <rect x="166" y="0" width="2" height="2"/>
    <rect x="160" y="2" width="2" height="2"/>
    <rect x="168" y="2" width="2" height="2"/>
    <rect x="160" y="4" width="2" height="2"/>
    <rect x="160" y="6" width="2" height="2"/>
    <rect x="164" y="6" width="2" height="2"/>
    <rect x="166" y="6" width="2" height="2"/>
    <rect x="168" y="6" width="2" height="2"/>
    <rect x="160" y="8" width="2" height="2"/>
    <rect x="168" y="8" width="2" height="2"/>
    <rect x="160" y="10" width="2" height="2"/>
    <rect x="168" y="10" width="2" height="2"/>
    <rect x="162" y="12" width="2" height="2"/>
    <rect x="164" y="12" width="2" height="2"/>
    <rect x="166" y="12" width="2" height="2"/>
    <rect x="168" y="12" width="2" height="2"/>
    <rect x="172" y="0" width="2" height="2"/>
    <rect x="174" y="0" width="2" height="2"/>
    <rect x="176" y="0" width="2" height="2"/>
    <rect x="178" y="0" width="2" height="2"/>
    <rect x="180" y="0" width="2" height="2"/>
    <rect x="176" y="2" width="2" height="2"/>
    <rect x="176" y="4" width="2" height="2"/>
    <rect x="176" y="6" width="2" height="2"/>
    <rect x="176" y="8" width="2" height="2"/>
    <rect x="176" y="10" width="2" height="2"/>
    <rect x="172" y="12" width="2" height="2"/>
    <rect x="174" y="12" width="2" height="2"/>
    <rect x="176" y="12" width="2" height="2"/>
    <rect x="178" y="12" width="2" height="2"/>
    <rect x="180" y="12" width="2" height="2"/>
    <rect x="184" y="0" width="2" height="2"/>
    <rect x="192" y="0" width="2" height="2"/>
    <rect x="184" y="2" width="2" height="2"/>
    <rect x="186" y="2" width="2" height="2"/>
    <rect x="192" y="2" width="2" height="2"/>
    <rect x="184" y="4" width="2" height="2"/>
    <rect x="188" y="4" width="2" height="2"/>
    <rect x="192" y="4" width="2" height="2"/>
    <rect x="184" y="6" width="2" height="2"/>
    <rect x="188" y="6" width="2" height="2"/>
    <rect x="192" y="6" width="2" height="2"/>
    <rect x="184" y="8" width="2" height="2"/>
    <rect x="190" y="8" width="2" height="2"/>
    <rect x="192" y="8" width="2" height="2"/>
    <rect x="184" y="10" width="2" height="2"/>
    <rect x="192" y="10" width="2" height="2"/>
    <rect x="184" y="12" width="2" height="2"/>
    <rect x="192" y="12" width="2" height="2"/>
    <rect x="196" y="0" width="2" height="2"/>
    <rect x="198" y="0" width="2" height="2"/>
    <rect x="200" y="0" width="2" height="2"/>
    <rect x="202" y="0" width="2" height="2"/>
    <rect x="204" y="0" width="2" height="2"/>
    <rect x="196" y="2" width="2" height="2"/>
    <rect x="196" y="4" width="2" height="2"/>
    <rect x="196" y="6" width="2" height="2"/>
    <rect x="198" y="6" width="2" height="2"/>
    <rect x="200" y="6" width="2" height="2"/>
    <rect x="202" y="6" width="2" height="2"/>
    <rect x="196" y="8" width="2" height="2"/>
    <rect x="196" y="10" width="2" height="2"/>
    <rect x="196" y="12" width="2" height="2"/>
    <rect x="198" y="12" width="2" height="2"/>
    <rect x="200" y="12" width="2" height="2"/>
    <rect x="202" y="12" width="2" height="2"/>
    <rect x="204" y="12" width="2" height="2"/>
    <rect x="208" y="0" width="2" height="2"/>
    <rect x="210" y="0" width="2" height="2"/>
    <rect x="212" y="0" width="2" height="2"/>
    <rect x="214" y="0" width="2" height="2"/>
    <rect x="216" y="0" width="2" height="2"/>
    <rect x="208" y="2" width="2" height="2"/>
    <rect x="208" y="4" width="2" height="2"/>
    <rect x="208" y="6" width="2" height="2"/>
    <rect x="210" y="6" width="2" height="2"/>
    <rect x="212" y="6" width="2" height="2"/>
    <rect x="214" y="6" width="2" height="2"/>
    <rect x="208" y="8" width="2" height="2"/>
    <rect x="208" y="10" width="2" height="2"/>
    <rect x="208" y="12" width="2" height="2"/>
    <rect x="210" y="12" width="2" height="2"/>
    <rect x="212" y="12" width="2" height="2"/>
    <rect x="214" y="12" width="2" height="2"/>
    <rect x="216" y="12" width="2" height="2"/>
    <rect x="220" y="0" width="2" height="2"/>
    <rect x="222" y="0" width="2" height="2"/>
    <rect x="224" y="0" width="2" height="2"/>
    <rect x="226" y="0" width="2" height="2"/>
    <rect x="220" y="2" width="2" height="2"/>
    <rect x="228" y="2" width="2" height="2"/>
    <rect x="220" y="4" width="2" height="2"/>
    <rect x="228" y="4" width="2" height="2"/>
    <rect x="220" y="6" width="2" height="2"/>
    <rect x="222" y="6" width="2" height="2"/>
    <rect x="224" y="6" width="2" height="2"/>
    <rect x="226" y="6" width="2" height="2"/>
    <rect x="220" y="8" width="2" height="2"/>
    <rect x="224" y="8" width="2" height="2"/>
    <rect x="220" y="10" width="2" height="2"/>
    <rect x="226" y="10" width="2" height="2"/>
    <rect x="220" y="12" width="2" height="2"/>
    <rect x="228" y="12" width="2" height="2"/>
    <rect x="232" y="0" width="2" height="2"/>
    <rect x="234" y="0" width="2" height="2"/>
    <rect x="236" y="0" width="2" height="2"/>
    <rect x="238" y="0" width="2" height="2"/>
    <rect x="240" y="0" width="2" height="2"/>
    <rect x="236" y="2" width="2" height="2"/>
    <rect x="236" y="4" width="2" height="2"/>
    <rect x="236" y="6" width="2" height="2"/>
    <rect x="236" y="8" width="2" height="2"/>
    <rect x="236" y="10" width="2" height="2"/>
    <rect x="232" y="12" width="2" height="2"/>
    <rect x="234" y="12" width="2" height="2"/>
    <rect x="236" y="12" width="2" height="2"/>
    <rect x="238" y="12" width="2" height="2"/>
    <rect x="240" y="12" width="2" height="2"/>
    <rect x="244" y="0" width="2" height="2"/>
    <rect x="252" y="0" width="2" height="2"/>
    <rect x="244" y="2" width="2" height="2"/>
    <rect x="246" y="2" width="2" height="2"/>
    <rect x="252" y="2" width="2" height="2"/>
    <rect x="244" y="4" width="2" height="2"/>
    <rect x="248" y="4" width="2" height="2"/>
    <rect x="252" y="4" width="2" height="2"/>
    <rect x="244" y="6" width="2" height="2"/>
    <rect x="248" y="6" width="2" height="2"/>
    <rect x="252" y="6" width="2" height="2"/>
    <rect x="244" y="8" width="2" height="2"/>
    <rect x="250" y="8" width="2" height="2"/>
    <rect x="252" y="8" width="2" height="2"/>
    <rect x="244" y="10" width="2" height="2"/>
    <rect x="252" y="10" width="2" height="2"/>
    <rect x="244" y="12" width="2" height="2"/>
    <rect x="252" y="12" width="2" height="2"/>
    <rect x="258" y="0" width="2" height="2"/>
    <rect x="260" y="0" width="2" height="2"/>
    <rect x="262" y="0" width="2" height="2"/>
    <rect x="256" y="2" width="2" height="2"/>
    <rect x="264" y="2" width="2" height="2"/>
    <rect x="256" y="4" width="2" height="2"/>
    <rect x="256" y="6" width="2" height="2"/>
    <rect x="260" y="6" width="2" height="2"/>
    <rect x="262" y="6" width="2" height="2"/>
    <rect x="264" y="6" width="2" height="2"/>
    <rect x="256" y="8" width="2" height="2"/>
    <rect x="264" y="8" width="2" height="2"/>
    <rect x="256" y="10" width="2" height="2"/>
    <rect x="264" y="10" width="2" height="2"/>
    <rect x="258" y="12" width="2" height="2"/>
    <rect x="260" y="12" width="2" height="2"/>
    <rect x="262" y="12" width="2" height="2"/>
    <rect x="264" y="12" width="2" height="2"/>
    <rect x="278" y="0" width="2" height="2"/>
    <rect x="280" y="0" width="2" height="2"/>
    <rect x="282" y="0" width="2" height="2"/>
    <rect x="284" y="0" width="2" height="2"/>
    <rect x="276" y="2" width="2" height="2"/>
    <rect x="276" y="4" width="2" height="2"/>
    <rect x="278" y="6" width="2" height="2"/>
    <rect x="280" y="6" width="2" height="2"/>
    <rect x="282" y="6" width="2" height="2"/>
    <rect x="284" y="8" width="2" height="2"/>
    <rect x="284" y="10" width="2" height="2"/>
    <rect x="276" y="12" width="2" height="2"/>
    <rect x="278" y="12" width="2" height="2"/>
    <rect x="280" y="12" width="2" height="2"/>
    <rect x="282" y="12" width="2" height="2"/>
    <rect x="288" y="0" width="2" height="2"/>
    <rect x="290" y="0" width="2" height="2"/>
    <rect x="292" y="0" width="2" height="2"/>
    <rect x="294" y="0" width="2" height="2"/>
    <rect x="296" y="0" width="2" height="2"/>
    <rect x="292" y="2" width="2" height="2"/>
    <rect x="292" y="4" width="2" height="2"/>
    <rect x="292" y="6" width="2" height="2"/>
    <rect x="292" y="8" width="2" height="2"/>
    <rect x="292" y="10" width="2" height="2"/>
    <rect x="292" y="12" width="2" height="2"/>
    <rect x="300" y="0" width="2" height="2"/>
    <rect x="308" y="0" width="2" height="2"/>
    <rect x="300" y="2" width="2" height="2"/>
    <rect x="308" y="2" width="2" height="2"/>
    <rect x="300" y="4" width="2" height="2"/>
    <rect x="308" y="4" width="2" height="2"/>
    <rect x="300" y="6" width="2" height="2"/>
    <rect x="308" y="6" width="2" height="2"/>
    <rect x="300" y="8" width="2" height="2"/>
    <rect x="308" y="8" width="2" height="2"/>
    <rect x="300" y="10" width="2" height="2"/>
    <rect x="308" y="10" width="2" height="2"/>
    <rect x="302" y="12" width="2" height="2"/>
    <rect x="304" y="12" width="2" height="2"/>
    <rect x="306" y="12" width="2" height="2"/>
    <rect x="312" y="0" width="2" height="2"/>
    <rect x="314" y="0" width="2" height="2"/>
    <rect x="316" y="0" width="2" height="2"/>
    <rect x="318" y="0" width="2" height="2"/>
    <rect x="312" y="2" width="2" height="2"/>
    <rect x="320" y="2" width="2" height="2"/>
    <rect x="312" y="4" width="2" height="2"/>
    <rect x="320" y="4" width="2" height="2"/>
    <rect x="312" y="6" width="2" height="2"/>
    <rect x="320" y="6" width="2" height="2"/>
    <rect x="312" y="8" width="2" height="2"/>
    <rect x="320" y="8" width="2" height="2"/>
    <rect x="312" y="10" width="2" height="2"/>
    <rect x="320" y="10" width="2" height="2"/>
    <rect x="312" y="12" width="2" height="2"/>
    <rect x="314" y="12" width="2" height="2"/>
    <rect x="316" y="12" width="2" height="2"/>
    <rect x="318" y="12" width="2" height="2"/>
    <rect x="324" y="0" width="2" height="2"/>
    <rect x="326" y="0" width="2" height="2"/>
    <rect x="328" y="0" width="2" height="2"/>
    <rect x="330" y="0" width="2" height="2"/>
    <rect x="332" y="0" width="2" height="2"/>
    <rect x="324" y="2" width="2" height="2"/>
    <rect x="324" y="4" width="2" height="2"/>
    <rect x="324" y="6" width="2" height="2"/>
    <rect x="326" y="6" width="2" height="2"/>
    <rect x="328" y="6" width="2" height="2"/>
    <rect x="330" y="6" width="2" height="2"/>
    <rect x="324" y="8" width="2" height="2"/>
    <rect x="324" y="10" width="2" height="2"/>
    <rect x="324" y="12" width="2" height="2"/>
    <rect x="326" y="12" width="2" height="2"/>
    <rect x="328" y="12" width="2" height="2"/>
    <rect x="330" y="12" width="2" height="2"/>
    <rect x="332" y="12" width="2" height="2"/>
    <rect x="336" y="0" width="2" height="2"/>
    <rect x="344" y="0" width="2" height="2"/>
    <rect x="336" y="2" width="2" height="2"/>
    <rect x="338" y="2" width="2" height="2"/>
    <rect x="344" y="2" width="2" height="2"/>
    <rect x="336" y="4" width="2" height="2"/>
    <rect x="340" y="4" width="2" height="2"/>
    <rect x="344" y="4" width="2" height="2"/>
    <rect x="336" y="6" width="2" height="2"/>
    <rect x="340" y="6" width="2" height="2"/>
    <rect x="344" y="6" width="2" height="2"/>
    <rect x="336" y="8" width="2" height="2"/>
    <rect x="342" y="8" width="2" height="2"/>
    <rect x="344" y="8" width="2" height="2"/>
    <rect x="336" y="10" width="2" height="2"/>
    <rect x="344" y="10" width="2" height="2"/>
    <rect x="336" y="12" width="2" height="2"/>
    <rect x="344" y="12" width="2" height="2"/>
    <rect x="348" y="0" width="2" height="2"/>
    <rect x="350" y="0" width="2" height="2"/>
    <rect x="352" y="0" width="2" height="2"/>
    <rect x="354" y="0" width="2" height="2"/>
    <rect x="356" y="0" width="2" height="2"/>
    <rect x="352" y="2" width="2" height="2"/>
    <rect x="352" y="4" width="2" height="2"/>
    <rect x="352" y="6" width="2" height="2"/>
    <rect x="352" y="8" width="2" height="2"/>
    <rect x="352" y="10" width="2" height="2"/>
    <rect x="352" y="12" width="2" height="2"/>
    <rect x="360" y="12" width="2" height="2"/>
    <rect x="362" y="12" width="2" height="2"/>
    <rect x="364" y="12" width="2" height="2"/>
    <rect x="366" y="12" width="2" height="2"/>
    <rect x="368" y="12" width="2" height="2"/>
  </g>
</svg>
